<svg width="24" height="24" viewBox="0 0 24 24" fill="none" xmlns="http://www.w3.org/2000/svg">
<path d="M17.7838 14.2002C16.2549 12.2411 16.2255 10.0062 17.0241 8.03267C15.3316 9.68064 14.3786 11.7183 15.0441 13.7757C15.1285 14.0374 15.1827 14.2937 15.2223 14.5555L15.2374 14.8711L15.143 14.9056L14.7411 13.9926C14.1701 12.4388 14.0859 10.8004 14.6467 9.11785C15.7635 5.82213 14.3045 2.59504 11.644 0C12.87 3.13777 12.7559 6.7054 10.2743 9.86328C9.79766 10.4653 9.40573 11.0772 9.09314 11.7035L8.90428 12.1178L8.91938 12.0095C9.42056 9.88797 8.32868 7.96349 6.51202 6.51312C7.45498 8.39276 7.59904 10.6232 6.22906 12.7447C5.08238 14.9351 4.78945 17.6541 5.688 19.6722C7.09279 22.5882 8.95914 23.9302 11.4955 23.9991C11.8626 24.0039 12.2399 23.9895 12.6272 23.9399C14.6969 23.7179 17.2829 22.7118 18.1166 20.3286C18.9404 18.2853 19.3326 16.193 17.7838 14.2002Z" fill="#C23114"/>
</svg>
